<?xml version="1.0" encoding="utf-8"?><svg viewBox="0 0 22 22" xmlns="http://www.w3.org/2000/svg" xmlns:xlink="http://www.w3.org/1999/xlink"><style>:root>svg{display:none}:root>svg:target{display:block}</style><svg viewBox="0 0 20 20" id="heart" xmlns="http://www.w3.org/2000/svg"><path d="M5.287 1.304a3.33 3.33 0 00-.295.013C3.129 1.464 1.25 3.073 1.25 6.332c0 5.902 7.033 11.107 8.723 12.272 1.667-1.32 8.777-7.282 8.777-12.778 0-2.954-1.817-4.421-3.617-4.564-1.892-.15-4.022 1.075-4.516 4.156a.625.625 0 01-1.235 0c-.46-2.875-2.34-4.115-4.095-4.115v.001zM10 20a.625.625 0 01-.335-.098C9.271 19.652 0 13.688 0 6.335 0 2.274 2.458.264 4.894.069 6.744-.081 8.896.865 10 3.18 11.12.823 13.325-.136 15.231.015 17.528.2 20 2.095 20 5.826c0 6.823-9.234 13.758-9.627 14.05A.629.629 0 0110 20"/></svg><svg viewBox="0 0 22 22" id="profile" xmlns="http://www.w3.org/2000/svg"><path fill-rule="evenodd" clip-rule="evenodd" d="M15.5 6a4.5 4.5 0 11-9 0 4.5 4.5 0 019 0zM17 6A6 6 0 115 6a6 6 0 0112 0zM1.5 19.5c0-1.05.73-2.267 2.485-3.305C5.707 15.178 8.184 14.5 11 14.5s5.293.678 7.015 1.695C19.77 17.233 20.5 18.45 20.5 19.5a.5.5 0 01-.5.5H2a.5.5 0 01-.5-.5zM11 13c-6.075 0-11 2.91-11 6.5a2 2 0 002 2h18a2 2 0 002-2c0-3.59-4.925-6.5-11-6.5z"/></svg><svg viewBox="0 0 19 20" id="search" xmlns="http://www.w3.org/2000/svg"><path fill-rule="evenodd" clip-rule="evenodd" d="M2.343 13.657a8 8 0 009.977 1.076l4.339 4.338 1.414-1.414-4.212-4.212a8 8 0 10-11.518.212zm10.102-1.627a6 6 0 10-.783.723l.754-.753.03.03z"/></svg></svg>