<?xml version="1.0" encoding="utf-8"?><svg viewBox="0 0 15 15" xmlns="http://www.w3.org/2000/svg" xmlns:xlink="http://www.w3.org/1999/xlink"><style>:root>svg{display:none}:root>svg:target{display:block}</style><svg viewBox="0 0 15 15" id="search" xmlns="http://www.w3.org/2000/svg"><path fill-rule="evenodd" clip-rule="evenodd" d="M6.606 0A6.613 6.613 0 000 6.606a6.613 6.613 0 006.606 6.605 6.576 6.576 0 004.218-1.525l3.135 3.135a.608.608 0 00.862 0 .61.61 0 000-.862l-3.135-3.135a6.576 6.576 0 001.525-4.218A6.613 6.613 0 006.606 0zm0 11.992A5.392 5.392 0 011.22 6.606 5.392 5.392 0 016.606 1.22a5.392 5.392 0 015.386 5.386 5.392 5.392 0 01-5.386 5.386z"/></svg></svg>